<svg xmlns="http://www.w3.org/2000/svg" viewBox="-39.867 -39.378 233.239 249.069">
	<g style="transform-origin:925.935px 2479.69px" transform="scale(.1 -.1) rotate(-24.139 51747.006 31829.632)">
		<path
			d="M1027.521 3377.688c-22-51-50-114-61-139-17-42-24-49-73-64-190-63-347-183-435-333-37-63-77-176-60-169 131 50 149 62 201 132 154 206 339 290 559 254 84-14 87-14 81 4-3 10-43 106-88 213l-83 195-41-93Z" />
		<path
			d="M1050.521 2618.688c-159-70-283-130-275-133s67-21 131-40l116-36 39-127 39-127 123 289c67 159 121 291 120 295-2 4-133-51-293-121Z"
			style="fill:red;transform-box:fill-box;transform-origin:50% 50%" transform="rotate(26.725 0 0)" />
		<path
			d="M301.521 2564.688c-110-47-204-86-209-88-6-2 52-30 129-64l139-61 26-68c93-249 229-396 436-471 44-16 64-19 60-11-57 145-60 149-132 203-205 152-290 338-254 558 8 48 13 87 10 87-4-1-96-39-205-85Zm1374-310c-67-30-81-41-126-102-151-203-338-288-557-252-84 14-87 14-81-4 3-10 43-106 88-213l83-195 41 93c22 51 50 114 61 139 17 42 24 49 73 64 80 27 196 87 264 139 68 51 119 109 169 192 34 56 80 175 67 173-4 0-41-15-82-34Z" />
	</g>
</svg>
