<svg xmlns="http://www.w3.org/2000/svg" viewBox="-40.433 -39.587 480.405 249.069">
	<g style="transform:rotate(15%) translate(0,360) scale(.1,-.1)" transform="matrix(.1 0 0 -.1 -29.427 342.292)">
		<g style="transform-origin:925.935px 2479.69px" transform="rotate(-24.139 284.321 -257.594)">
			<path
				d="M1027.521 3377.688c-22-51-50-114-61-139-17-42-24-49-73-64-190-63-347-183-435-333-37-63-77-176-60-169 131 50 149 62 201 132 154 206 339 290 559 254 84-14 87-14 81 4-3 10-43 106-88 213l-83 195-41-93Z" />
			<path
				d="M1050.521 2618.688c-159-70-283-130-275-133s67-21 131-40l116-36 39-127 39-127 123 289c67 159 121 291 120 295-2 4-133-51-293-121Z"
				style="fill:red;transform-box:fill-box;transform-origin:50% 50%" transform="rotate(26.725 0 0)" />
			<path
				d="M301.521 2564.688c-110-47-204-86-209-88-6-2 52-30 129-64l139-61 26-68c93-249 229-396 436-471 44-16 64-19 60-11-57 145-60 149-132 203-205 152-290 338-254 558 8 48 13 87 10 87-4-1-96-39-205-85Zm1374-310c-67-30-81-41-126-102-151-203-338-288-557-252-84 14-87 14-81-4 3-10 43-106 88-213l83-195 41 93c22 51 50 114 61 139 17 42 24 49 73 64 80 27 196 87 264 139 68 51 119 109 169 192 34 56 80 175 67 173-4 0-41-15-82-34Z" />
		</g>
		<path
			d="M1861.08 2198.36q-26-1-37.5-1.5t-11.5 5.5q0 6 6 12 64 59 216 59 52 0 82-9l10-3q12-5 12-11 0-5-7-8-27-8-52-25.5t-25-24.5l6-7q32-18 49.5-57t19.5-69l2-31q0-99-55-163t-150-64q-48 0-83 17t-51.5 38.5q-16.5 21.5-26.5 48.5-12 37-12 76.5t13.5 79.5q13.5 40 31 59t39.5 31q28 15 45 15t17-7l-6-10q-22-26-31.5-68t-9.5-74.5q0-32.5 8-64.5t18-47.5q10-15.5 23-23.5 19-12 40-12t41 16.5q20 16.5 29 43.5 18 50 18 103 0 84-42.5 130t-125.5 46Zm675.907 68q-18-108-18-275 0-123 10-162l4-13q0-13-22-13-77 0-88 43-1 5-4.5 5t-6.5-4q-31-41-96-41-36 0-75 18-24 11-39 38.5t-15 67.5l15 219q0 69-14 98-5 11-5 14 0 6 5 8 16 5 41 5 97 0 97-80 0-25-20.5-114t-20.5-126.5q0-37.5 16.5-57.5t46-20q29.5 0 46.5 21t20 42l3 21q4 35 4 123t-5.5 111.5q-5.5 23.5-5.5 29.5 0 25 40 39.5t72 14.5q15 0 15-12Zm352.99-177 4-35q0-19-36-19-73 0-73 55 0 13 7 36t7 40q0 17-10 29.5t-29 12.5q-19 0-32.5-13.5t-16.5-27.5l-4-14q-6-31-6-103.5t2-114q2-41.5 4-57t2-18.5q0-25-31-40.5t-62-15.5q-31 0-31 13l5 31q14 87 14 227t-10 190q0 12 21 12 54 0 72-37 1-4 3.5-4t13.5 9q33 27 78 27 28 0 56-11 57-23 57-96Zm335.989-131q0-43-16.5-75t-37.5-47q-21-15-50-24-38-12-69-12-65 0-108 25.5t-43 81.5q0 33 18 54 28 31 67 31 12 0 12-11 0-1-4.5-15.5t-4.5-36.5q0-22 17.5-39t42.5-17q25 0 40 8.5t21 21.5q9 18 9 34 0 29-29 50t-64 33q-35 12-64 40t-29 70q0 72 45.5 108t123.5 36q34 0 71.5-9.5t37.5-32q0-22.5-7.5-41.5t-18.5-19q-6 0-8 4.5t-7 10.5q-5 6-24 15.5t-32.5 9.5q-13.5 0-18-.5t-15.5-3q-11-2.5-20-7.5-23-13-23-38 0-16 7-23.5t11-11.5q4-4 14-9.5t14-7.5q4-2 18-8.5t18-8.5q106-50 106-136Zm142.967 398-24 1q-27 0-35-13-2-3-5-3-13 0-13 44.5t13.5 56.5q13.5 12 47 12t45.5-11.5q12-11.5 12-38.5t-9-37.5q-9-10.5-32-10.5Zm-80-505 11 233q0 83-19 113-6 10-14 15-6 2-6 8 0 18 51 35t74.5 17q23.5 0 24.5-12 0-20-5.5-113.5t-5.5-196.5q0-103 12-128 3-5 3-10 0-13-38-13t-78 20q-10 5-10 32Zm172.006 360 3 40q1 9 14 9h35l-4 80v4q0 23 35 44t64 21q9 0 9-8v-1q-4-27-8-139 44 0 56 2t13 2q7 0 7-12t-11-30.5q-11-18.5-24-19.5h-42q-1-34-1-114.5t1.5-132.5q1.5-52 3.5-78.5t4.5-42.5q2.5-16 4-23t1.5-9q0-10-13-11-39 0-77.5 11t-38.5 38q21 168 21 361-27 0-41-2h-1q-9 0-11 11Zm341.965 145-24 1q-27 0-35-13-2-3-5-3-13 0-13 44.5t13.5 56.5q13.5 12 47 12t45.5-11.5q12-11.5 12-38.5t-9-37.5q-9-10.5-32-10.5Zm-80-505 11 233q0 83-19 113-6 10-14 15-6 2-6 8 0 18 51 35t74.5 17q23.5 0 24.5-12 0-20-5.5-113.5t-5.5-196.5q0-103 12-128 3-5 3-10 0-13-38-13t-78 20q-10 5-10 32Zm282.089 347q-26-1-37.5-1.5t-11.5 5.5q0 6 6 12 64 59 216 59 52 0 82-9l10-3q12-5 12-11 0-5-7-8-27-8-52-25.5t-25-24.5l6-7q32-18 49.5-57t19.5-69l2-31q0-99-55-163t-150-64q-48 0-83 17t-51.5 38.5q-16.5 21.5-26.5 48.5-12 37-12 76.5t13.5 79.5q13.5 40 31 59t39.5 31q28 15 45 15t17-7l-6-10q-22-26-31.5-68t-9.5-74.5q0-32.5 8-64.5t18-47.5q10-15.5 23-23.5 19-12 40-12t41 16.5q20 16.5 29 43.5 18 50 18 103 0 84-42.5 130t-125.5 46Zm318.886-384q18 108 18 259t-9 196q0 13 30 13 46 0 61-35 1-3 5-3t6 2q31 32 96 32t103-33q38-33 38-96 0-38-6.5-108t-6.5-104q0-81 27-117 4-5 4-10 0-13-28-13-124 0-124 110 0 42 19 117t19 114q0 80-66 80-32 0-48.5-19t-18.5-43.5q-2-24.5-2-92.5 0-104 7-181l2-22q0-28-36.5-43.5t-63-15.5q-26.5 0-26.5 13Z" />
	</g>
</svg>
